<?xml version="1.0" encoding="utf-8"?>
<!-- Generator: Adobe Illustrator 24.3.0, SVG Export Plug-In . SVG Version: 6.00 Build 0)  -->
<svg version="1.1" id="Layer_1" xmlns="http://www.w3.org/2000/svg" xmlns:xlink="http://www.w3.org/1999/xlink" x="0px" y="0px"
	 viewBox="0 0 407 35" style="enable-background:new 0 0 407 35;" xml:space="preserve">
<g>
	<path d="M6.1,26.5l3.7-2.1v-20l-5.5,0L2,8.8H1l1.1-6.4h0.7c0,0,0.7,0.8,1.3,0.9H21c0.6-0.1,1.3-0.9,1.3-0.9H23l-0.1,6.4h-0.9
		l-1.7-4.5l-5.7,0v20l3.7,2.1v0.1H6.1V26.5z"/>
	<path d="M39.7,3.5V3.4h10.9v0.1l-3.1,2v19l3.1,2v0.1H39.7v-0.1l3.1-2v-9.3H32.2v9.3l3.1,2v0.1H24.4v-0.1l3.1-2v-19l-3.1-2V3.4h10.9
		v0.1l-3.1,2v8.6h10.6V5.5L39.7,3.5z"/>
	<path d="M52,26.5l4.1-2.3V5.7l-4-2.2V3.4h14.7l3.7-0.1l0.4,0l0.2,5.5H70l-2.2-4.4h-7.1v9.7l7.4,0l1.1-3.4h1.1v7.9h-1.1l-1.1-3.3
		l-7.4,0v10.4l8.2-0.1l2.5-4.7h1.1l-0.9,5.9h-0.4l-3.2-0.1H52V26.5z"/>
	<path d="M82.8,20.3H84c0,0,1.1,3.4,2.3,4.7c0.7,0.6,1.7,1.2,3.4,1.2c2.9,0,4.5-1.7,4.5-4.3c0-2.5-1.9-3.7-4.1-4.8l-1-0.5
		c-3.5-1.7-5.7-3.4-5.7-7c0-4.1,3.7-6.6,8.7-6.6c1.3,0,2.5,0.1,3.5,0.3l1.6,0.2l0.3,5.5h-1.1c0,0-1-3.2-1.9-4.1c-0.7-0.5-1.6-1-3-1
		c-2.6,0-4,1.5-4,3.7c0,2.4,1.2,3.7,4.4,5.2l1.6,0.8c3.2,1.6,5,3.3,5,6.5c0,4.4-3.7,6.9-9,6.9c-1.5,0-3-0.2-4.1-0.5l-1.9-0.5
		L82.8,20.3z"/>
	<path d="M120.5,16c0,2.8-0.2,4.7-0.8,6.4c-1.1,3.1-3.4,4.8-8,4.8c-6.5,0-9.3-3.2-9.3-10.4V5.5l-3.1-2V3.4h11v0.1l-3.2,2v11.1
		c0,5.7,1,9.4,5.8,9.4c3,0,4.8-1.3,5.7-3.8c0.5-1.5,0.8-3.1,0.8-6.1V5.9l-3.8-2.4V3.4h7.9v0.1l-3.1,2.4V16z"/>
	<path d="M132.8,24.4l3.8,2.1v0.1H125v-0.1l3.1-2V5.4L125,3.5V3.4h5.4c2.1,0,4-0.1,6.1-0.1c5.8,0,8,2.5,8,5.9c0,3.6-2.6,5.4-4.9,6.1
		c1.6,2.5,6.2,8.7,8.9,10.3c0.7,0.4,1.9,0.7,1.9,0.7v0.4h-4.5c-2.4,0-3-0.1-4.5-2l-0.7-0.9c-2.2-2.7-4.6-6.5-5.6-7.8l-2.2-0.1V24.4z
		 M132.8,14.8h3.4c1.9-0.7,3.4-2.2,3.4-5.4c0-3.2-1.7-5.3-5.3-5.3c-0.7,0-1.2,0.1-1.6,0.1V14.8z"/>
	<path d="M163.4,26.6h-12.7v-0.1l3.5-2.3V5.7l-3.7-2.2V3.4h14l3.7-0.1l0.4,0l0.2,5.5h-1.1l-2.2-4.4h-6.7v9.7l7,0l1.1-3.4h1.1v7.9
		H167l-1.1-3.4l-7,0v9l4.5,2.4V26.6z"/>
	<path d="M170.2,26.5l4.1-2.3V5.7l-4-2.2V3.4h14.7l3.7-0.1l0.4,0l0.2,5.5h-1.1L186,4.4h-7.1v9.7l7.4,0l1.1-3.4h1.1v7.9h-1.1
		l-1.1-3.3l-7.4,0v10.4l8.2-0.1l2.5-4.7h1.1l-0.9,5.9h-0.4l-3.2-0.1h-15.9V26.5z"/>
	<path d="M199.6,24.4l3.8,2.1v0.1h-11.6v-0.1l3.1-2V5.4l-3.1-1.9V3.4h5.4c2.1,0,4-0.1,6.1-0.1c5.8,0,8,2.5,8,5.9
		c0,3.6-2.6,5.4-4.9,6.1c1.6,2.5,6.2,8.7,8.9,10.3c0.7,0.4,1.9,0.7,1.9,0.7v0.4h-4.5c-2.4,0-3-0.1-4.5-2l-0.7-0.9
		c-2.2-2.7-4.6-6.5-5.6-7.8l-2.2-0.1V24.4z M199.6,14.8h3.4c1.9-0.7,3.4-2.2,3.4-5.4c0-3.2-1.7-5.3-5.3-5.3c-0.7,0-1.2,0.1-1.6,0.1
		V14.8z"/>
	<path d="M221.3,4.8c0,3-2.3,5.3-6.1,6.1l-0.3-0.8c1.2-0.3,3.1-1.1,3.1-3c0-1.4-1.2-1.7-1.8-1.9c-0.3-0.2-0.9-0.8-0.9-1.9
		c0-1.3,1.1-2.4,2.6-2.4C219.6,0.9,221.3,2.1,221.3,4.8z"/>
	<path d="M223.2,20.3h1.2c0,0,1.1,3.4,2.3,4.7c0.7,0.6,1.7,1.2,3.4,1.2c2.9,0,4.5-1.7,4.5-4.3c0-2.5-1.9-3.7-4.1-4.8l-1-0.5
		c-3.5-1.7-5.7-3.4-5.7-7c0-4.1,3.7-6.6,8.7-6.6c1.3,0,2.5,0.1,3.5,0.3l1.6,0.2l0.3,5.5h-1.1c0,0-1-3.2-1.9-4.1c-0.7-0.5-1.6-1-3-1
		c-2.6,0-4,1.5-4,3.7c0,2.4,1.2,3.7,4.4,5.2l1.6,0.8c3.2,1.6,5,3.3,5,6.5c0,4.4-3.7,6.9-9,6.9c-1.5,0-3-0.2-4.1-0.5l-1.9-0.5
		L223.2,20.3z"/>
	<path d="M252.2,24.7V5.5l-3.2-2V3.4h10.9v0.1l-3,2v16.4c0,4.2-1,7.1-2.5,9c-1.8,2.3-4.1,3.2-6.3,3.2c-2.1,0-4-0.8-4-2.1
		c0-1.2,1-2.3,2.3-2.3c2.2,1.9,3.3,2.9,4,2.9C251.7,32.6,252.2,31.5,252.2,24.7z"/>
	<path d="M260.4,15.2c0-7,5.5-12.2,12.9-12.2c8,0,12.1,5.4,12.1,11.8c0,7.2-5.6,12.2-12.7,12.2C265,27.1,260.4,21.9,260.4,15.2z
		 M272.2,4.1c-4,0-6.5,4.1-6.5,10.2c0,6.8,2.7,11.8,7.9,11.8c4,0,6.5-4.2,6.5-10.5C280.1,9,277.4,4.1,272.2,4.1z"/>
	<path d="M306.8,16c0,2.8-0.2,4.7-0.8,6.4c-1.1,3.1-3.4,4.8-8,4.8c-6.5,0-9.3-3.2-9.3-10.4V5.5l-3.1-2V3.4h11v0.1l-3.2,2v11.1
		c0,5.7,1,9.4,5.8,9.4c3,0,4.8-1.3,5.7-3.8c0.5-1.5,0.8-3.1,0.8-6.1V5.9L302,3.5V3.4h7.9v0.1l-3.1,2.4V16z"/>
	<path d="M319.2,24.4l3.8,2.1v0.1h-11.6v-0.1l3.1-2V5.4l-3.1-1.9V3.4h5.4c2.1,0,4-0.1,6.1-0.1c5.8,0,8,2.5,8,5.9
		c0,3.6-2.6,5.4-4.9,6.1c1.6,2.5,6.2,8.7,8.9,10.3c0.7,0.4,1.9,0.7,1.9,0.7v0.4h-4.5c-2.4,0-3-0.1-4.5-2l-0.7-0.9
		c-2.2-2.7-4.6-6.5-5.6-7.8l-2.2-0.1V24.4z M319.2,14.8h3.4c1.9-0.7,3.4-2.2,3.4-5.4c0-3.2-1.7-5.3-5.3-5.3c-0.7,0-1.2,0.1-1.6,0.1
		V14.8z"/>
	<path d="M358.7,5.9l-0.1,21.2h-0.8l-13.1-15.2c-1.2-1.4-2.6-3.1-3.2-3.8l-0.1,0c0.1,0.8,0.1,2.3,0.1,3.6l0,12.5l4,2.3v0.1h-8.3
		v-0.1l3.2-2.3L340.4,7l-1.8-2l-2-1.6V3.4h6.6l11.1,12.9c1,1.2,2.8,3.4,3.3,4l0.1,0V5.9l-3.8-2.4V3.4h7.9v0.1L358.7,5.9z"/>
	<path d="M375.1,18h-7.8l-2.3,6.2l4,2.3v0.1h-8.2v-0.1l3.1-2.3l6.8-17.9L370.2,5c1.2-0.4,2.9-1.6,3.5-2.5h0.6l1.3,3.8l6.7,18l3,2.1
		v0.1H374v-0.1l3.5-2L375.1,18z M368,16h6.3l-3-8.4h-0.1L368,16z"/>
	<path d="M402.4,25.5l2.5-5h1.1l-1,6.1h-0.4l-3.2-0.1h-15.5v-0.1l3.9-2.3V5.5l-3.4-2V3.4h11.3v0.1l-3.2,2v20.1L402.4,25.5z"/>
</g>
</svg>
